<?xml version="1.0" encoding="utf-8"?>
<!-- Generator: Adobe Illustrator 25.4.1, SVG Export Plug-In . SVG Version: 6.00 Build 0)  -->
<svg version="1.1" id="Layer_1" xmlns="http://www.w3.org/2000/svg" xmlns:xlink="http://www.w3.org/1999/xlink" x="0px" y="0px"
	 viewBox="0 0 1920 1080" style="enable-background:new 0 0 1920 1080;" xml:space="preserve">
<style type="text/css">
	.st0{fill:#EF7D41;}
	.st1{fill:#2B2862;}
	.st2{fill:none;stroke:#EF7D41;stroke-width:6;stroke-miterlimit:10;}
	.st3{fill:#FFFFFF;}
</style>
<g>
	<g>
		<g>
			<path class="st0" d="M1045.15,748.51l-32.95,66.05h-8.21l-5.2-24.31l-12.63,24.31h-8.3l-11.93-66.05h12.28l6.34,49.68l11.8-19.72
				l-6.16-29.96h8.78l11.62,49.68l22.2-49.68H1045.15z"/>
			<path class="st0" d="M1093.08,748.41l-10.57,66.14h-11.71l5.2-33.12h-18.18l-5.2,33.12h-11.71l10.57-66.14h11.71l-3.93,24.07
				h18.18l3.93-24.07H1093.08z"/>
			<path class="st0" d="M1113.31,757.22l-2.49,15.36h25.87l-1.44,8.95h-25.87l-3.85,24.12h28.18l-1.35,8.9h-39.9l10.57-66.14h39.9
				l-1.44,8.81H1113.31z"/>
			<path class="st0" d="M1178.03,814.56h-10.14L1155,790.53l-3.76,24.03h-11.62l10.57-66.14h21.54c1.86,0,3.56,0.33,5.09,0.98
				c1.53,0.65,2.87,1.56,4.02,2.73c1.15,1.17,2.08,2.57,2.8,4.21c0.71,1.64,1.19,3.44,1.42,5.38c0.17,2.33,0.09,4.72-0.26,7.18
				c-0.23,1.37-0.55,2.74-0.96,4.12c-0.41,1.37-0.92,2.71-1.53,4.02c-0.5,1.05-1.06,2.11-1.7,3.16c-0.64,1.05-1.36,2.05-2.16,2.99
				c-0.8,0.94-1.68,1.81-2.64,2.61c-0.96,0.8-1.98,1.47-3.06,2.01c-2.48,1.31-5.04,1.96-7.69,1.96h-0.39L1178.03,814.56z
				 M1156.53,780.96h6.34c0.9,0,1.79-0.18,2.67-0.55c0.87-0.37,1.7-0.87,2.47-1.51c0.77-0.64,1.49-1.4,2.14-2.3
				c0.66-0.89,1.22-1.87,1.68-2.92c0.67-1.63,1.12-3.28,1.35-4.95c0.23-1.68,0.26-3.36,0.09-5.05c-0.17-0.89-0.43-1.73-0.76-2.51
				c-0.34-0.78-0.77-1.47-1.31-2.06c-0.54-0.59-1.18-1.05-1.92-1.39c-0.74-0.33-1.6-0.5-2.56-0.5h-6.34L1156.53,780.96z"/>
			<path class="st0" d="M1207.87,757.22l-2.49,15.36h25.87l-1.44,8.95h-25.87l-3.85,24.12h28.18l-1.35,8.9h-39.9l10.57-66.14h39.9
				l-1.44,8.81H1207.87z"/>
			<path class="st0" d="M1255.02,757.22l-2.49,15.36h25.87l-1.44,8.95h-25.87l-3.85,24.12h28.18l-1.35,8.9h-39.9l10.57-66.14h39.9
				l-1.44,8.81H1255.02z"/>
			<path class="st0" d="M1306.85,798.19l23.16-49.78h12.28l-33.87,66.14h-8.3l-12.72-66.14h12.28L1306.85,798.19z"/>
			<path class="st0" d="M1358.8,757.22l-2.49,15.36h25.87l-1.44,8.95h-25.87l-3.85,24.12h28.18l-1.35,8.9h-39.9l10.57-66.14h39.9
				l-1.44,8.81H1358.8z"/>
			<path class="st0" d="M1423.52,814.56h-10.14l-12.89-24.03l-3.76,24.03h-11.62l10.57-66.14h21.54c1.86,0,3.56,0.33,5.09,0.98
				c1.53,0.65,2.87,1.56,4.02,2.73c1.15,1.17,2.08,2.57,2.8,4.21c0.71,1.64,1.19,3.44,1.42,5.38c0.17,2.33,0.09,4.72-0.26,7.18
				c-0.23,1.37-0.55,2.74-0.96,4.12c-0.41,1.37-0.92,2.71-1.53,4.02c-0.5,1.05-1.06,2.11-1.7,3.16c-0.64,1.05-1.36,2.05-2.16,2.99
				c-0.8,0.94-1.68,1.81-2.64,2.61c-0.96,0.8-1.98,1.47-3.06,2.01c-2.48,1.31-5.04,1.96-7.69,1.96h-0.39L1423.52,814.56z
				 M1402.02,780.96h6.34c0.9,0,1.79-0.18,2.67-0.55c0.87-0.37,1.7-0.87,2.47-1.51c0.77-0.64,1.49-1.4,2.14-2.3
				c0.66-0.89,1.22-1.87,1.68-2.92c0.67-1.63,1.12-3.28,1.35-4.95c0.23-1.68,0.26-3.36,0.09-5.05c-0.17-0.89-0.43-1.73-0.76-2.51
				c-0.34-0.78-0.77-1.47-1.31-2.06c-0.54-0.59-1.18-1.05-1.92-1.39c-0.74-0.33-1.6-0.5-2.56-0.5h-6.34L1402.02,780.96z"/>
			<path class="st0" d="M1478.49,784.36l-4.76,30.2h-11.62l4.72-30.39l-15.21-35.75h13.24l9.88,23.12l17.35-23.12h13.24
				L1478.49,784.36z"/>
			<path class="st0" d="M1548.84,751.91c1.57,1.69,2.78,3.71,3.63,6.05c0.84,2.35,1.41,4.85,1.7,7.51c0.29,2.66,0.36,5.39,0.22,8.18
				c-0.15,2.79-0.42,5.48-0.83,8.06c-0.64,3.86-1.58,7.64-2.82,11.34c-1.24,3.7-2.77,7.1-4.61,10.19c-0.9,1.5-1.92,2.93-3.06,4.28
				c-1.14,1.36-2.37,2.55-3.71,3.59c-1.34,1.04-2.77,1.87-4.28,2.49c-1.51,0.62-3.1,0.93-4.76,0.93h-11.19
				c-1.63,0-3.11-0.29-4.44-0.89c-1.33-0.59-2.51-1.39-3.56-2.39c-1.05-1.01-1.94-2.19-2.69-3.57c-0.74-1.37-1.33-2.85-1.77-4.45
				c-0.85-3.09-1.29-6.49-1.33-10.19c-0.04-3.7,0.25-7.48,0.9-11.34c0.38-2.49,0.92-5.11,1.64-7.87c0.71-2.76,1.64-5.47,2.77-8.14
				c1.14-2.66,2.51-5.19,4.11-7.59s3.5-4.47,5.68-6.22c1.37-1.08,2.85-1.94,4.44-2.56c1.59-0.62,3.21-0.93,4.87-0.93h11.01
				c1.66,0,3.17,0.31,4.54,0.93C1546.67,749.97,1547.85,750.82,1548.84,751.91z M1537.91,795.65c0.9-2.07,1.7-4.3,2.38-6.68
				c0.68-2.38,1.23-4.79,1.64-7.25c0.26-1.66,0.45-3.31,0.57-4.95c0.12-1.64,0.16-3.24,0.13-4.79c-0.03-1.55-0.13-3.02-0.31-4.4
				c-0.17-1.39-0.42-2.66-0.74-3.8c-0.2-0.73-0.46-1.46-0.76-2.18c-0.31-0.72-0.69-1.38-1.14-1.99c-0.45-0.61-1-1.12-1.64-1.53
				c-0.64-0.41-1.4-0.7-2.27-0.86h-3.89c-0.85,0.06-1.64,0.29-2.38,0.67c-0.74,0.38-1.45,0.88-2.12,1.48
				c-0.67,0.61-1.29,1.28-1.86,2.03c-0.57,0.75-1.1,1.54-1.6,2.37c-0.7,1.15-1.35,2.42-1.97,3.8c-0.61,1.39-1.18,2.86-1.7,4.4
				c-0.52,1.55-0.99,3.14-1.4,4.79c-0.41,1.64-0.74,3.29-1,4.95c-0.26,1.63-0.49,3.49-0.68,5.6c-0.19,2.11-0.22,4.23-0.09,6.37
				c0.13,2.14,0.46,4.15,0.98,6.03c0.52,1.88,1.37,3.4,2.53,4.55c0.5,0.48,1,0.85,1.53,1.1c0.52,0.26,1.15,0.38,1.88,0.38h3.85
				c1.14,0,2.21-0.33,3.21-0.98c1-0.65,1.94-1.48,2.8-2.46c0.86-0.99,1.62-2.07,2.29-3.25
				C1536.83,797.87,1537.42,796.74,1537.91,795.65z"/>
			<path class="st0" d="M1563.69,806.33c-0.67-1.28-1.17-2.65-1.49-4.12c-0.32-1.47-0.52-2.97-0.59-4.52
				c-0.07-1.55-0.04-3.1,0.09-4.67c0.13-1.56,0.31-3.08,0.55-4.55l6.55-40.06h11.62l-6.55,40.06c-0.2,1.34-0.35,2.66-0.44,3.95
				c-0.09,1.29-0.09,2.54,0,3.76c0.09,1.21,0.29,2.35,0.61,3.42c0.32,1.07,0.8,2.03,1.44,2.9c0.9,1.18,2.06,1.97,3.47,2.37
				c1.41,0.4,2.87,0.43,4.37,0.1c1.5-0.33,2.96-1.05,4.39-2.15c1.43-1.1,2.61-2.58,3.54-4.43c0.76-1.63,1.35-3.31,1.77-5.05
				c0.42-1.74,0.75-3.36,0.98-4.86l6.55-40.06h11.62l-6.55,40.06c-0.15,0.83-0.31,1.79-0.5,2.9c-0.19,1.1-0.46,2.32-0.81,3.66
				c-0.58,2.2-1.42,4.33-2.51,6.39s-2.37,3.92-3.85,5.58c-1.47,1.66-3.12,3.09-4.94,4.28c-1.82,1.2-3.77,2.03-5.83,2.51
				c-0.99,0.26-2.15,0.45-3.47,0.57c-1.33,0.13-2.57,0.19-3.74,0.19c-1.72,0-3.4-0.14-5.05-0.41c-1.65-0.27-3.18-0.73-4.59-1.39
				c-1.41-0.65-2.69-1.51-3.85-2.56C1565.36,809.15,1564.42,807.86,1563.69,806.33z"/>
			<path class="st0" d="M1620.85,814.56l34.74-66.14h8.3l13.59,66.14h-12.23l-4.5-21.06h-20.32l-10.88,21.06H1620.85z
				 M1645.19,784.64h13.76l-3.58-17.9L1645.19,784.64z"/>
			<path class="st0" d="M1723.14,814.56H1713l-12.89-24.03l-3.76,24.03h-11.62l10.57-66.14h21.54c1.86,0,3.56,0.33,5.09,0.98
				c1.53,0.65,2.87,1.56,4.02,2.73c1.15,1.17,2.08,2.57,2.8,4.21c0.71,1.64,1.19,3.44,1.42,5.38c0.17,2.33,0.09,4.72-0.26,7.18
				c-0.23,1.37-0.55,2.74-0.96,4.12c-0.41,1.37-0.92,2.71-1.53,4.02c-0.5,1.05-1.06,2.11-1.7,3.16c-0.64,1.05-1.36,2.05-2.16,2.99
				c-0.8,0.94-1.68,1.81-2.64,2.61c-0.96,0.8-1.98,1.47-3.06,2.01c-2.48,1.31-5.04,1.96-7.69,1.96h-0.39L1723.14,814.56z
				 M1701.64,780.96h6.34c0.9,0,1.79-0.18,2.67-0.55c0.87-0.37,1.7-0.87,2.47-1.51c0.77-0.64,1.49-1.4,2.14-2.3
				c0.66-0.89,1.22-1.87,1.68-2.92c0.67-1.63,1.12-3.28,1.35-4.95c0.23-1.68,0.26-3.36,0.09-5.05c-0.17-0.89-0.43-1.73-0.76-2.51
				c-0.34-0.78-0.77-1.47-1.31-2.06c-0.54-0.59-1.18-1.05-1.92-1.39c-0.74-0.33-1.6-0.5-2.56-0.5h-6.34L1701.64,780.96z"/>
			<path class="st0" d="M1752.99,757.22l-2.49,15.36h25.87l-1.44,8.95h-25.87l-3.85,24.12h28.18l-1.35,8.9h-39.9l10.57-66.14h39.9
				l-1.44,8.81H1752.99z"/>
		</g>
	</g>
	<g>
		<g>
			<g>
				<path class="st0" d="M496.71,605.73l45.18-282.59h99.69c8.21,0,15.77,1.47,22.68,4.4c6.91,2.93,12.72,7.19,17.46,12.78
					c4.98,5.45,8.77,11.59,11.39,18.4c2.61,6.82,4.42,13.9,5.41,21.27c1.24,11.59,0.75,22.97-1.49,34.15
					c-2.24,11.18-5.66,21.75-10.27,31.7c-3.99,8.18-8.71,15.61-14.19,22.29c-5.48,6.68-11.42,12.37-17.83,17.07
					c-6.41,4.7-13.16,8.31-20.26,10.84c-7.09,2.53-14.25,3.78-21.47,3.78H562.8l-16.43,105.92H496.71z M568.96,462.19h34.72
					c4.48,0,8.65-0.82,12.51-2.45c3.86-1.63,7.37-3.85,10.55-6.65c3.17-2.79,6.04-6.03,8.59-9.71c2.55-3.68,4.76-7.63,6.63-11.86
					c2.86-6.81,4.67-13.63,5.41-20.45c0.75-3.95,1.15-7.8,1.21-11.55c0.06-3.75-0.09-7.33-0.47-10.74
					c-1.74-8.86-4.98-15.74-9.71-20.65c-4.73-4.91-10.83-7.36-18.3-7.36h-34.72L568.96,462.19z"/>
				<path class="st0" d="M909.3,338.07c6.72,7.23,11.88,15.85,15.49,25.87c3.61,10.02,6.04,20.72,7.28,32.11
					c1.24,11.38,1.55,23.04,0.93,34.96c-0.62,11.93-1.81,23.41-3.55,34.46c-2.74,16.5-6.75,32.65-12.04,48.46
					c-5.29,15.82-11.86,30.34-19.7,43.55c-3.86,6.41-8.21,12.51-13.07,18.3c-4.85,5.8-10.15,10.91-15.87,15.34
					c-5.73,4.43-11.83,7.97-18.29,10.63c-6.47,2.66-13.26,3.99-20.35,3.99h-47.79c-6.97,0-13.29-1.26-18.95-3.78
					c-5.66-2.52-10.73-5.93-15.21-10.22c-4.48-4.29-8.31-9.37-11.48-15.23c-3.17-5.86-5.69-12.2-7.56-19.02
					c-3.61-13.22-5.51-27.74-5.69-43.55c-0.19-15.81,1.09-31.96,3.83-48.46c1.62-10.63,3.95-21.84,7-33.64
					c3.05-11.79,7-23.38,11.85-34.76c4.85-11.38,10.7-22.19,17.55-32.41c6.84-10.22,14.94-19.08,24.27-26.58
					c5.85-4.63,12.16-8.28,18.95-10.94c6.78-2.66,13.72-3.99,20.81-3.99h47.05c7.09,0,13.56,1.33,19.42,3.99
					C900.02,329.79,905.06,333.43,909.3,338.07z M862.62,524.96c3.86-8.86,7.25-18.37,10.17-28.52c2.92-10.15,5.26-20.48,7-30.98
					c1.12-7.09,1.93-14.14,2.43-21.16c0.5-7.02,0.68-13.84,0.56-20.45c-0.13-6.61-0.56-12.88-1.31-18.81
					c-0.75-5.93-1.81-11.35-3.17-16.26c-0.87-3.13-1.96-6.24-3.27-9.3c-1.31-3.07-2.93-5.9-4.85-8.49c-1.93-2.59-4.26-4.77-7-6.54
					c-2.74-1.77-5.97-3-9.71-3.68h-16.62c-3.61,0.28-7,1.23-10.17,2.86c-3.17,1.63-6.19,3.75-9.05,6.34
					c-2.86,2.59-5.51,5.49-7.93,8.69c-2.43,3.2-4.7,6.58-6.81,10.12c-2.99,4.91-5.79,10.33-8.4,16.26
					c-2.61,5.93-5.04,12.2-7.28,18.81c-2.24,6.61-4.23,13.43-5.97,20.45c-1.74,7.02-3.17,14.08-4.29,21.16
					c-1.12,6.95-2.09,14.93-2.89,23.93c-0.81,9-0.93,18.06-0.37,27.2c0.56,9.13,1.96,17.72,4.2,25.76
					c2.24,8.04,5.85,14.52,10.83,19.43c2.11,2.04,4.29,3.61,6.53,4.7c2.24,1.09,4.91,1.64,8.03,1.64h16.43
					c4.85,0,9.43-1.4,13.72-4.19c4.29-2.79,8.28-6.31,11.95-10.53c3.67-4.22,6.94-8.86,9.8-13.9
					C858.02,534.44,860.51,529.6,862.62,524.96z"/>
				<path class="st0" d="M954.48,605.73l5.23-37.62h93.72c4.11,0,8.09-0.65,11.95-1.94c3.86-1.29,7.44-3.13,10.74-5.52
					c3.3-2.38,6.28-5.25,8.96-8.59c2.68-3.34,4.88-7.05,6.63-11.14c3.11-6,5.01-12.17,5.69-18.5c0.68-6.34,0.53-12.37-0.47-18.1
					c-1.37-7.77-4.76-13.73-10.17-17.89c-5.41-4.16-11.79-6.24-19.14-6.24h-31.74c-11.2,0-21.16-2.66-29.87-7.97
					c-8.71-5.32-15.19-13.02-19.42-23.11c-2.86-5.45-4.73-11.49-5.6-18.1c-0.87-6.61-1-13.32-0.37-20.14
					c0.62-6.81,1.9-13.63,3.83-20.45c1.93-6.81,4.39-13.22,7.37-19.22c4.73-9.41,10.51-17.55,17.36-24.43
					c6.84-6.88,14.19-12.44,22.03-16.67c4.6-2.31,9.49-4.05,14.66-5.21c5.16-1.16,10.36-1.74,15.59-1.74h89.42l-6.16,37.63h-74.12
					c-3.73,0-7.31,0.68-10.74,2.04c-3.43,1.36-6.57,3.2-9.43,5.52c-2.86,2.32-5.48,5.04-7.84,8.18c-2.37,3.14-4.36,6.41-5.97,9.81
					c-2.74,5.72-4.54,11.62-5.41,17.69c-0.87,6.07-0.75,11.49,0.37,16.26c1.37,7.5,4.36,13.05,8.96,16.66
					c4.6,3.61,10.14,5.42,16.62,5.42h31.74c8.09,0,15.68,1.33,22.78,3.99c7.09,2.66,13.19,6.51,18.29,11.55
					c4.98,4.77,8.84,10.33,11.57,16.66c2.74,6.34,4.6,13.06,5.6,20.14c1.49,11.04,1.18,21.71-0.93,32
					c-2.12,10.29-5.54,20.14-10.27,29.55c-8.46,15.41-18.95,27.5-31.46,36.3c-12.51,8.79-26.11,13.19-40.79,13.19H954.48z"/>
				<path class="st0" d="M1374.71,360.77h-64.22l-39.02,244.97h-49.66l38.83-244.97h-64.22l6.16-37.63h178.29L1374.71,360.77z"/>
				<path class="st0" d="M1451.44,360.77l-10.64,65.64h110.52l-6.16,38.24h-110.52l-16.43,103.06h120.41l-5.79,38.03h-170.45
					l45.18-282.59h170.45l-6.16,37.63H1451.44z"/>
				<path class="st0" d="M1709.07,605.73l-38.64-98.35l-68.33,98.35h-53.95l110.89-147.02l-58.43-135.57h53.77l31.74,86.09
					l60.86-86.09h53.95l-103.24,135.57l65.34,147.02H1709.07z"/>
			</g>
		</g>
		<g>
			<path class="st1" d="M422.95,520.67c-13.73,23.9-29.49,46.51-46.18,68.54c-26.48,34.95-55.17,68.04-85.48,99.73
				c-4.97,5.2-8.59,5.49-13.09,0.76c-46.7-49.1-90.4-100.62-126.16-158.42c-2.66-4.3-5.26-8.63-7.76-13
				c30.09,45.38,81.62,75.3,140.14,75.3C341.91,593.58,392.66,564.71,422.95,520.67z"/>
			<path class="st1" d="M260.07,447.57c0,10.52,0,20,0,29.67c6.58,2.92,13.42,3.6,20.24,3.87c45.99,1.85,84.28-34.71,84.66-80.71
				c0.35-42.22-32.39-77.95-75.31-81.23c-44.71-3.42-79.71,29.1-85.79,66.7c-0.88,5.45-1.24,11.04-1.25,16.56
				c-0.1,43.74-0.06,87.49-0.06,131.23c0,2.41,0,4.82,0,7.35c-11.85-2.34-42.88-28.75-58.34-54.16
				c-24.35-40.02-31.34-83.01-19.55-128.05c23.59-90.13,115.62-142.37,205.08-116.29c89.29,26.03,139.72,120.57,109.71,209.64
				c-30.48,90.46-127.21,131.57-208.23,103.03c-0.1-1.84-0.31-3.97-0.31-6.11c-0.02-49.3-0.08-98.59,0.01-147.89
				c0.06-29.24,20.93-51.9,50.11-53.7c27.87-1.72,51.7,19.01,54.86,45.75c3.75,31.76-19.29,58.45-51.21,59.4
				c-6.07,0.18-12.21-1.77-18.29-2.91C264.48,449.38,262.66,448.48,260.07,447.57z M173.6,476.49c0-2.39,0-4.78,0-7.17
				c0-22.65-0.22-45.29,0.13-67.93c0.13-8.16,0.9-16.45,2.62-24.42c12.56-58.37,69.05-95.74,127.72-84.8
				c58.45,10.9,97.66,67.07,88.12,125.49c-9.64,59-65.91,101.21-127.27,90.51c-1.44-0.25-2.94-0.18-4.78-0.28c0,8.59,0,16.7,0,24.74
				c40.9,11.03,112.97-6.5,145.68-73.74c28.76-59.11,11.21-131.2-44.96-170.2c-55.99-38.88-130.49-30.23-176.51,19.25
				C137.95,357.83,138.16,429.74,173.6,476.49z M259.85,400.25c0.12,13.2,10.65,23.74,23.7,23.75c13.31,0,24.31-10.98,24.16-24.12
				c-0.15-13.24-11.29-24.04-24.53-23.77C270.09,376.38,259.73,387.11,259.85,400.25z"/>
		</g>
	</g>
	<line class="st2" x1="948.26" y1="809.78" x2="283.61" y2="809.78"/>
</g>
</svg>
